<svg id="Layer_1" data-name="Layer 1" xmlns="http://www.w3.org/2000/svg" viewBox="0 0 146.09 146.09" style=""><defs><style>.cls-1,.cls-2,.cls-3,.cls-4,.cls-5{fill:none;stroke-width:5px;}.cls-1,.cls-5{stroke:#4A5FC1;}.cls-1,.cls-2,.cls-4,.cls-5{stroke-linejoin:round;}.cls-2,.cls-3{stroke:#4A5FC1;}.cls-2,.cls-4,.cls-5{stroke-linecap:round;}.cls-3{stroke-miterlimit:10;}.cls-4{stroke:#fff;}</style></defs><path class="cls-1 scjWIffL_0" d="M36.13,40.22H30.65v72.26a15.75,15.75,0,0,0,4.11,8.28A16,16,0,0,0,45,125.52a18.14,18.14,0,0,0,11-6.06,17.9,17.9,0,0,0,4.11-9.74h55.3a16.77,16.77,0,0,1-4,10.71,16.57,16.57,0,0,1-8.22,5.09H46.43"></path><path class="cls-2 scjWIffL_1" d="M104.04,72.83L104.39,109.72"></path><path class="cls-2 scjWIffL_2" d="M36.91,40.22L36.91,33.87L51,33.87L51,44.13L36.91,44.13L36.91,40.22Z"></path><path class="cls-2 scjWIffL_3" d="M84.56,40.22L84.56,33.87L98.65,33.87L98.65,44.13L84.56,44.13L84.56,40.22Z"></path><path class="cls-2 scjWIffL_4" d="M51.7,40.22L84.57,40.22"></path><path class="cls-2 scjWIffL_5" d="M99.35,40.22L104.39,40.22L104.39,57.7"></path><path class="cls-3 scjWIffL_6" d="M43.96,20.57L43.96,33.26"></path><path class="cls-3 scjWIffL_7" d="M91.61,20.57L91.61,33.26"></path><path class="cls-4 scjWIffL_8" d="M46.13,80.74L59.09,60.04L62.04,64.65L70.65,52.13L88.92,80.74L46.13,80.74Z"></path><path class="cls-4 scjWIffL_9" d="M70.74,80.22L61.6,64.14"></path><path class="cls-4 scjWIffL_10" d="M46.13,90.17L88.92,90.17"></path><path class="cls-4 scjWIffL_11" d="M52.43,97.61L73.7,97.61"></path><path class="cls-4 scjWIffL_12" d="M81.57,97.61L81.57,97.61"></path><path class="cls-5 scjWIffL_13" d="M104.22,65.91L104.22,65.91"></path><path class="cls-3 scjWIffL_14" d="M104.39,66.39L104.39,66.39"></path><style data-made-with="vivus-instant">.scjWIffL_0{stroke-dasharray:256 258;stroke-dashoffset:257;animation:scjWIffL_draw 5000ms linear 0ms forwards;}.scjWIffL_1{stroke-dasharray:37 39;stroke-dashoffset:38;animation:scjWIffL_draw 5000ms linear 0ms forwards;}.scjWIffL_2{stroke-dasharray:49 51;stroke-dashoffset:50;animation:scjWIffL_draw 5000ms linear 0ms forwards;}.scjWIffL_3{stroke-dasharray:49 51;stroke-dashoffset:50;animation:scjWIffL_draw 5000ms linear 0ms forwards;}.scjWIffL_4{stroke-dasharray:33 35;stroke-dashoffset:34;animation:scjWIffL_draw 5000ms linear 0ms forwards;}.scjWIffL_5{stroke-dasharray:23 25;stroke-dashoffset:24;animation:scjWIffL_draw 5000ms linear 0ms forwards;}.scjWIffL_6{stroke-dasharray:13 15;stroke-dashoffset:14;animation:scjWIffL_draw 5000ms linear 0ms forwards;}.scjWIffL_7{stroke-dasharray:13 15;stroke-dashoffset:14;animation:scjWIffL_draw 5000ms linear 0ms forwards;}.scjWIffL_8{stroke-dasharray:122 124;stroke-dashoffset:123;animation:scjWIffL_draw 5000ms linear 0ms forwards;}.scjWIffL_9{stroke-dasharray:19 21;stroke-dashoffset:20;animation:scjWIffL_draw 5000ms linear 0ms forwards;}.scjWIffL_10{stroke-dasharray:43 45;stroke-dashoffset:44;animation:scjWIffL_draw 5000ms linear 0ms forwards;}.scjWIffL_11{stroke-dasharray:22 24;stroke-dashoffset:23;animation:scjWIffL_draw 5000ms linear 0ms forwards;}.scjWIffL_12{stroke-dasharray:0 2;stroke-dashoffset:1;animation:scjWIffL_draw 5000ms linear 0ms forwards;}.scjWIffL_13{stroke-dasharray:0 2;stroke-dashoffset:1;animation:scjWIffL_draw 5000ms linear 0ms forwards;}.scjWIffL_14{stroke-dasharray:0 2;stroke-dashoffset:1;animation:scjWIffL_draw 5000ms linear 0ms forwards;}@keyframes scjWIffL_draw{100%{stroke-dashoffset:0;}}@keyframes scjWIffL_fade{0%{stroke-opacity:1;}95.65217391304348%{stroke-opacity:1;}100%{stroke-opacity:0;}}</style></svg>