<svg id="Layer_1" data-name="Layer 1" xmlns="http://www.w3.org/2000/svg" viewBox="0 0 146.09 146.09" style=""><defs><style>.cls-1,.cls-3,.cls-4,.cls-5{fill:none;}.cls-1,.cls-2{stroke:#fff;}.cls-1,.cls-2,.cls-4,.cls-5{stroke-miterlimit:10;}.cls-1{stroke-width:3px;}.cls-2{fill:#fff;stroke-width:4px;}.cls-3,.cls-4,.cls-5{stroke:#4A5FC1;}.cls-3{stroke-linejoin:round;}.cls-3,.cls-4{stroke-width:5px;}.cls-5{stroke-linecap:round;stroke-width:6px;}</style></defs><path class="cls-1 tKZXvOtt_0" d="M83.78,87.11L83.78,74.67"></path><path class="cls-1 tKZXvOtt_1" d="M102.3,74.67L102.3,87.11"></path><path class="cls-1 tKZXvOtt_2" d="M43.63,87.11L43.63,74.2"></path><path class="cls-1 tKZXvOtt_3" d="M62.02,87.11L62.02,74.2"></path><path class="cls-1 tKZXvOtt_4" width="26" height="7.65" d="M79.43 67.02 L105.43 67.02 L105.43 74.67 L79.43 74.67 Z"></path><path class="cls-1 tKZXvOtt_5" d="M83.15,67.35L73.83,50.85L92.44,22.28L110.61,49.8L102.91,67.02"></path><path class="cls-1 tKZXvOtt_6" d="M92.43,50.72L92.43,22.28"></path><path class="cls-1 tKZXvOtt_7" d="M96.11,59.66v0a4.84,4.84,0,0,0,.42-6.48h0a4.85,4.85,0,0,0-7.2-.44v0a4.84,4.84,0,0,0-.26,6.63h0A4.85,4.85,0,0,0,96.11,59.66Z"></path><path class="cls-1 tKZXvOtt_8" width="25.17" height="7.17" d="M40.04 67.02 L65.21000000000001 67.02 L65.21000000000001 74.19 L40.04 74.19 Z"></path><path class="cls-1 tKZXvOtt_9" d="M43.63,67.35c-1-.71-6.79-5.29-8.11-10.85-.07-.31-.13-.61-.19-.91a13.63,13.63,0,0,1,5.35-13.11,35.17,35.17,0,0,0,8.23-8.76,34.91,34.91,0,0,0,4.87-11.44Q58.9,30.49,64,38.7a22.81,22.81,0,0,1,2.87,17.65l0,.15A33.17,33.17,0,0,1,62,67"></path><path class="cls-2 tKZXvOtt_10" d="M67.54,81.8L71.34,81.8"></path><path class="cls-2 tKZXvOtt_11" d="M74.41,81.8L78.21,81.8"></path><path class="cls-3 tKZXvOtt_12" d="M42.13,30.76L21.26,30.76L21.26,86.85L21.26,107.59L123.26,107.59L124.83,30.76L105.52,30.76"></path><path class="cls-4 tKZXvOtt_13" d="M66.13,30.76L81.52,30.76"></path><path class="cls-4 tKZXvOtt_14" d="M22.57,87.11L123.68,87.11"></path><path class="cls-4 tKZXvOtt_15" d="M48.39,123.8L96.57,123.8"></path><path class="cls-4 tKZXvOtt_16" d="M81.52,108.33L81.52,122.93"></path><path class="cls-4 tKZXvOtt_17" d="M63.35,108.33L63.35,122.93"></path><path class="cls-5 tKZXvOtt_18" d="M73.04,96.63L73.04,96.63"></path><style data-made-with="vivus-instant">.tKZXvOtt_0{stroke-dasharray:13 15;stroke-dashoffset:14;animation:tKZXvOtt_draw 5000ms linear 0ms forwards;}.tKZXvOtt_1{stroke-dasharray:13 15;stroke-dashoffset:14;animation:tKZXvOtt_draw 5000ms linear 0ms forwards;}.tKZXvOtt_2{stroke-dasharray:13 15;stroke-dashoffset:14;animation:tKZXvOtt_draw 5000ms linear 0ms forwards;}.tKZXvOtt_3{stroke-dasharray:13 15;stroke-dashoffset:14;animation:tKZXvOtt_draw 5000ms linear 0ms forwards;}.tKZXvOtt_4{stroke-dasharray:68 70;stroke-dashoffset:69;animation:tKZXvOtt_draw 5000ms linear 0ms forwards;}.tKZXvOtt_5{stroke-dasharray:105 107;stroke-dashoffset:106;animation:tKZXvOtt_draw 5000ms linear 0ms forwards;}.tKZXvOtt_6{stroke-dasharray:29 31;stroke-dashoffset:30;animation:tKZXvOtt_draw 5000ms linear 0ms forwards;}.tKZXvOtt_7{stroke-dasharray:31 33;stroke-dashoffset:32;animation:tKZXvOtt_draw 5000ms linear 0ms forwards;}.tKZXvOtt_8{stroke-dasharray:65 67;stroke-dashoffset:66;animation:tKZXvOtt_draw 5000ms linear 0ms forwards;}.tKZXvOtt_9{stroke-dasharray:104 106;stroke-dashoffset:105;animation:tKZXvOtt_draw 5000ms linear 0ms forwards;}.tKZXvOtt_10{stroke-dasharray:4 6;stroke-dashoffset:5;animation:tKZXvOtt_draw 5000ms linear 0ms forwards;}.tKZXvOtt_11{stroke-dasharray:4 6;stroke-dashoffset:5;animation:tKZXvOtt_draw 5000ms linear 0ms forwards;}.tKZXvOtt_12{stroke-dasharray:296 298;stroke-dashoffset:297;animation:tKZXvOtt_draw 5000ms linear 0ms forwards;}.tKZXvOtt_13{stroke-dasharray:16 18;stroke-dashoffset:17;animation:tKZXvOtt_draw 5000ms linear 0ms forwards;}.tKZXvOtt_14{stroke-dasharray:102 104;stroke-dashoffset:103;animation:tKZXvOtt_draw 5000ms linear 0ms forwards;}.tKZXvOtt_15{stroke-dasharray:49 51;stroke-dashoffset:50;animation:tKZXvOtt_draw 5000ms linear 0ms forwards;}.tKZXvOtt_16{stroke-dasharray:15 17;stroke-dashoffset:16;animation:tKZXvOtt_draw 5000ms linear 0ms forwards;}.tKZXvOtt_17{stroke-dasharray:15 17;stroke-dashoffset:16;animation:tKZXvOtt_draw 5000ms linear 0ms forwards;}.tKZXvOtt_18{stroke-dasharray:0 2;stroke-dashoffset:1;animation:tKZXvOtt_draw 5000ms linear 0ms forwards;}@keyframes tKZXvOtt_draw{100%{stroke-dashoffset:0;}}@keyframes tKZXvOtt_fade{0%{stroke-opacity:1;}95.65217391304348%{stroke-opacity:1;}100%{stroke-opacity:0;}}</style></svg>