<svg id="Layer_1" data-name="Layer 1" xmlns="http://www.w3.org/2000/svg" viewBox="0 0 146.09 146.09" style=""><defs><style>.cls-1,.cls-2{fill:none;stroke-miterlimit:10;}.cls-1{stroke:#4A5FC1;stroke-width:4px;}.cls-2{stroke:#fff;stroke-width:2px;}</style></defs><path class="cls-1 ewNRMSAc_0" d="M50.17,53.3L32.78,53.3L32.78,33.13L52.26,33.13L52.26,112.78L32.78,112.78L32.78,94.3L112.44,94.35L112.44,113.83L92.61,113.83L92.65,32.87L112.44,33.13L112.44,53.35L50.17,53.3Z"></path><path class="cls-1 ewNRMSAc_1" d="M81.65,65.83L81.65,20.61L125.48,20.61L125.48,65.83L20.61,65.83L20.61,20.61L64.44,20.61L64.09,125.48L21.3,125.48L21.65,83.48L124.44,83.48L123.74,125.48L82,125.48L81.65,65.83Z"></path><path class="cls-2 ewNRMSAc_2" width="8.02" height="7.96" d="M69.03 70.83 L77.05 70.83 L77.05 78.78999999999999 L69.03 78.78999999999999 Z"></path><path class="cls-2 ewNRMSAc_3" width="8.02" height="7.96" d="M38.3 99.39 L46.31999999999999 99.39 L46.31999999999999 107.35 L38.3 107.35 Z"></path><path class="cls-2 ewNRMSAc_4" width="8.02" height="7.96" d="M38.76 39.13 L46.78 39.13 L46.78 47.09 L38.76 47.09 Z"></path><path class="cls-2 ewNRMSAc_5" width="8.02" height="7.96" d="M98.76 39.13 L106.78 39.13 L106.78 47.09 L98.76 47.09 Z"></path><path class="cls-2 ewNRMSAc_6" width="8.02" height="7.96" d="M98.76 99.91 L106.78 99.91 L106.78 107.86999999999999 L98.76 107.86999999999999 Z"></path><path class="cls-2 ewNRMSAc_7" d="M87.22,119.38L87.22,26.16L118.87,26.09L118.96,59.15L26.61,59.09L26.52,26.09L58.17,26.09L57.83,119.31L27.22,119.31L27.28,89.11L117.72,89.15L117.65,119.31L87.22,119.38Z"></path><style data-made-with="vivus-instant">.ewNRMSAc_0{stroke-dasharray:477 479;stroke-dashoffset:478;animation:ewNRMSAc_draw 5000ms linear 0ms forwards;}.ewNRMSAc_1{stroke-dasharray:765 767;stroke-dashoffset:766;animation:ewNRMSAc_draw 5000ms linear 0ms forwards;}.ewNRMSAc_2{stroke-dasharray:32 34;stroke-dashoffset:33;animation:ewNRMSAc_draw 5000ms linear 0ms forwards;}.ewNRMSAc_3{stroke-dasharray:32 34;stroke-dashoffset:33;animation:ewNRMSAc_draw 5000ms linear 0ms forwards;}.ewNRMSAc_4{stroke-dasharray:32 34;stroke-dashoffset:33;animation:ewNRMSAc_draw 5000ms linear 0ms forwards;}.ewNRMSAc_5{stroke-dasharray:32 34;stroke-dashoffset:33;animation:ewNRMSAc_draw 5000ms linear 0ms forwards;}.ewNRMSAc_6{stroke-dasharray:32 34;stroke-dashoffset:33;animation:ewNRMSAc_draw 5000ms linear 0ms forwards;}.ewNRMSAc_7{stroke-dasharray:620 622;stroke-dashoffset:621;animation:ewNRMSAc_draw 5000ms linear 0ms forwards;}@keyframes ewNRMSAc_draw{100%{stroke-dashoffset:0;}}@keyframes ewNRMSAc_fade{0%{stroke-opacity:1;}95.65217391304348%{stroke-opacity:1;}100%{stroke-opacity:0;}}</style></svg>