<svg width="113" height="76" viewBox="0 0 113 76" fill="none" xmlns="http://www.w3.org/2000/svg">
<path fill-rule="evenodd" clip-rule="evenodd" d="M32.6299 16.9925C32.6299 7.98203 25.3254 0.677589 16.3149 0.677589C7.30445 0.677589 1.4263e-06 7.98203 1.4263e-06 16.9925L0 34.2815C2.00961e-10 34.2838 4.75664e-07 34.2861 1.4263e-06 34.2884V75.1906H5.60065L5.60065 46.5855C8.46693 49.0835 12.2143 50.5964 16.3149 50.5964C20.4156 50.5964 24.1629 49.0835 27.0292 46.5855V75.1906H32.6299V16.9925ZM27.0292 34.2815L27.0292 16.9925C27.0292 11.0752 22.2323 6.27824 16.3149 6.27824C10.3976 6.27824 5.60065 11.0752 5.60065 16.9925L5.60065 34.2815C5.60065 40.1988 10.3976 44.9958 16.3149 44.9958C22.2299 44.9958 27.0254 40.2026 27.0292 34.2885C27.0292 34.2862 27.0292 34.2838 27.0292 34.2815Z" fill="#4A5FC1"/>
<path d="M88.6364 0.434082C79.6259 0.434082 72.3214 7.73853 72.3214 16.749C72.3214 21.9958 74.7982 26.6642 78.6463 29.6487C70.4563 33.4292 64.7727 41.7143 64.7727 51.3269C64.7727 64.5065 75.4568 75.1906 88.6364 75.1906V68.859C78.8077 68.7935 70.8604 60.8057 70.8604 50.9617C70.8604 41.1177 78.8077 33.1298 88.6364 33.0644V27.4633L88.6312 27.4633C82.7163 27.4605 77.9221 22.6647 77.9221 16.749C77.9221 10.8317 82.719 6.03473 88.6364 6.03473V0.434082Z" fill="#4A5FC1"/>
<path d="M37.987 75.4341C51.1665 75.4341 61.8506 64.75 61.8506 51.5704C61.8506 41.9578 56.167 33.6727 47.977 29.8922C51.8252 26.9077 54.3019 22.2393 54.3019 16.9925C54.3019 7.98204 46.9975 0.677595 37.987 0.677589V6.27824C43.9043 6.27824 48.7013 11.0752 48.7013 16.9925C48.7013 22.9099 43.9043 27.7068 37.987 27.7068V33.3079C38.0276 33.3076 38.0681 33.3075 38.1088 33.3075C47.9934 33.3075 56.0065 41.3205 56.0065 51.2052C56.0065 61.0898 47.9934 69.1029 38.1088 69.1029C38.0681 69.1029 38.0276 69.1028 37.987 69.1025V75.4341Z" fill="#4A5FC1"/>
<path d="M102.029 0.677589H96.4286V58.6321H96.4357C96.4309 58.7939 96.4286 58.9562 96.4286 59.1191C96.4286 68.1296 103.733 75.4341 112.743 75.4341V69.8334C107.154 69.8334 102.565 65.554 102.073 60.0932H102.029V0.677589Z" fill="#4A5FC1"/>
</svg>
